<svg width="200" height="76" viewBox="0 0 200 76" fill="none" xmlns="http://www.w3.org/2000/svg">
<g clip-path="url(#clip0_40000004_27857)">
<path fill-rule="evenodd" clip-rule="evenodd" d="M200 9.13558L177.73 1.27759L177.762 16.5094L200 9.13558Z" fill="#C90C0F"/>
<path fill-rule="evenodd" clip-rule="evenodd" d="M144.431 43.8896L144.365 13.7811L140.142 13.7895L140.131 8.16088L158.06 8.1225L158.045 0.0190453L166.72 0.000488281L166.738 8.05586L175.015 8.03773L175.029 13.8604L166.944 13.8785L166.99 35.9266C166.99 35.9266 166.779 37.0198 169.038 37.0151L175.078 36.9907L175.093 43.8293L166.48 43.8474C157.423 43.8668 158.121 35.2063 158.121 35.2063L158.117 33.5433L158.075 13.6811L152.227 13.6934L152.291 43.8736L144.431 43.8896Z" fill="#BDBCBC"/>
<path d="M151.389 0.402832H144.297V7.12211H151.389V0.402832Z" fill="#BDBCBC"/>
<path fill-rule="evenodd" clip-rule="evenodd" d="M21.8548 13.889C14.4836 12.9088 10.0344 17.171 9.01029 23.1468L31.4238 23.0987C30.2147 18.6703 26.8915 14.5562 21.8548 13.889ZM118.525 43.9448L118.461 13.7549L109.912 13.7726C112.005 16.4718 113.674 19.5627 114.025 23.916L114.028 25.0244L114.033 27.0534V28.1634C113.132 37.0176 108.186 42.1051 99.648 43.7078C89.3269 45.3189 84.6315 38.7565 84.6315 38.7565L84.6737 58.199L77.9499 58.2129L77.8654 13.7608H65.4774L65.4884 18.8475C64.5002 17.8774 63.4423 16.3592 61.7787 15.5329C55.465 12.2745 50.6716 14.6329 50.6716 14.6329C49.0368 15.4764 47.4962 16.0538 47.5629 18.1499C47.6605 21.305 52.9171 21.7111 56.5335 22.1936C64.0183 23.1923 70.8836 23.9898 73.502 29.357C73.9868 30.1676 74.2343 33.5082 73.7089 35.2699C72.2916 40.1394 67.5008 42.7158 62.033 43.7651C58.2042 44.2544 54.2377 43.782 54.2377 43.782C46.6186 43.0811 41.3966 37.9244 41.3966 37.9244L36.6826 37.9341C32.5016 41.7235 26.712 44.577 18.9636 44.0692C8.7248 43.3944 1.70621 37.0087 1.00136 27.4798C0.895355 26.4427 0.997135 25.0813 0.997135 25.0813C2.11334 15.1369 8.93132 8.39698 19.7272 8.37252C30.428 8.35101 38.1054 16.1664 38.6152 27.7704L8.60444 27.8345L8.57573 27.9129C9.50906 34.7347 15.9685 39.8408 24.4086 38.1449C28.2032 37.3824 30.208 35.0514 32.9754 32.5863L45.6413 32.5585C45.6413 32.5585 46.9218 39.8859 60.9028 37.9218C65.9931 37.8375 66.9311 30.4147 61.2213 29.7539C61.2213 29.7539 57.1247 29.403 51.673 28.1137C46.8483 26.8404 42.2176 25.3968 40.5477 21.1177C40.0924 20.1397 39.9611 19.0879 39.9611 19.0879C40.4535 11.628 46.0822 9.01527 53.9674 8.52899C53.9674 8.52899 55.6462 8.40542 57.9407 8.28775L84.2476 8.23082L84.3798 13.7135C84.604 13.7388 84.9203 13.6714 84.963 13.528C87.5392 10.6681 91.0242 8.66901 96.1288 8.20593L100.037 8.19707L123.519 8.14689L123.654 16.3212L124.33 15.2137C126.408 11.7031 129 8.59225 134.45 8.12411L139.552 8.1123L139.56 13.719L133.249 13.7325C125.321 15.1091 125.52 24.0759 125.52 24.0759L125.329 26.8463L125.364 43.9296L118.525 43.9448ZM95.8116 14.2378C89.4869 14.2517 84.3734 19.6163 84.3865 26.2188C84.3996 32.8212 89.5389 38.1677 95.8632 38.1542C102.187 38.1407 107.299 32.7757 107.284 26.1698C107.268 19.564 102.131 14.2243 95.8116 14.2378Z" fill="#1D1D1B"/>
<path d="M90.532 55.4101C90.532 55.7281 90.5852 55.998 90.6971 56.222C90.7999 56.4396 90.9555 56.6281 91.1499 56.7702C91.3507 56.9159 91.5777 57.0217 91.8184 57.0819C92.0864 57.1491 92.3619 57.1814 92.6382 57.1781C92.9126 57.1841 93.1863 57.1465 93.449 57.0667C93.6475 57.0072 93.8328 56.9104 93.9951 56.7816C94.1268 56.6749 94.2302 56.5374 94.2962 56.3814C94.3556 56.2359 94.3867 56.0805 94.3878 55.9234C94.3878 55.6058 94.3143 55.3751 94.1712 55.222C94.0408 55.0806 93.8793 54.9713 93.6994 54.9027C93.363 54.7835 93.0204 54.6822 92.6732 54.5991C92.2804 54.5042 91.7977 54.3785 91.2255 54.2254C90.8699 54.1326 90.5734 54.0145 90.3386 53.8615C90.1216 53.7292 89.9303 53.5589 89.774 53.3587C89.6383 53.1824 89.5373 52.9821 89.4762 52.7683C89.4178 52.5607 89.388 52.3462 89.3875 52.1306C89.3875 51.7148 89.472 51.3525 89.6456 51.0476C89.8162 50.7454 90.0522 50.4852 90.3365 50.2859C90.632 50.0795 90.9621 49.9276 91.3112 49.8371C91.6702 49.7403 92.0404 49.6909 92.4122 49.6904C92.8263 49.6865 93.2388 49.7423 93.6369 49.8561C94.0025 49.9585 94.3455 50.1288 94.648 50.358C94.9368 50.5796 95.1732 50.862 95.3406 51.185C95.5095 51.514 95.5978 51.8944 95.5999 52.3267L94.1467 52.3301C94.1081 51.7959 93.9251 51.4193 93.5977 51.2002C93.2737 50.9809 92.8582 50.8713 92.3548 50.8725C92.1798 50.8733 92.0054 50.8912 91.834 50.9261C91.6636 50.9589 91.4992 51.0178 91.3467 51.1007C91.2004 51.1815 91.0749 51.2951 90.9801 51.4326C90.8838 51.5714 90.8369 51.7468 90.8369 51.9543C90.8369 52.2495 90.9286 52.4777 91.1114 52.6434C91.2943 52.8092 91.5338 52.9336 91.8264 53.0188C91.8577 53.0264 91.9785 53.061 92.1918 53.1171C92.405 53.1732 92.6445 53.2373 92.9051 53.3073C93.1656 53.3773 93.4258 53.4431 93.6775 53.5085C93.9292 53.5738 94.1108 53.6219 94.2193 53.6514C94.4731 53.7275 94.7126 53.8446 94.9284 53.9981C95.1234 54.1375 95.2945 54.3074 95.4352 54.5012C95.5693 54.6856 95.6717 54.891 95.738 55.109C95.8042 55.319 95.8382 55.5379 95.8389 55.7581C95.8389 56.222 95.7449 56.6183 95.5568 56.947C95.3729 57.2702 95.1172 57.5469 94.8093 57.7559C94.4873 57.97 94.1299 58.1254 93.7535 58.2147C93.3583 58.312 92.9527 58.3616 92.5457 58.3623C92.0945 58.3663 91.6449 58.3086 91.2094 58.1907C90.8143 58.0881 90.4437 57.9075 90.1194 57.6597C89.8025 57.4154 89.547 57.1008 89.3732 56.7407C89.1859 56.3665 89.0882 55.9239 89.0801 55.4131L90.532 55.4101Z" fill="#1D1D1B"/>
<path d="M97.9505 55.4993C97.9505 55.7267 97.9841 55.9528 98.0502 56.1703C98.1122 56.3767 98.2124 56.5695 98.3458 56.7389C98.4821 56.9031 98.6532 57.0352 98.8467 57.1256C99.0721 57.2266 99.3176 57.2755 99.5646 57.2686C99.9531 57.2686 100.264 57.1842 100.499 57.0155C100.734 56.8468 100.912 56.6001 101.025 56.2682L102.282 56.2657C102.217 56.5756 102.095 56.8706 101.921 57.1353C101.758 57.3858 101.55 57.6041 101.308 57.7793C101.064 57.9559 100.792 58.0899 100.503 58.1758C100.199 58.266 99.8839 58.3117 99.5671 58.3116C99.0962 58.3116 98.6773 58.2356 98.3116 58.0825C97.9604 57.9365 97.6456 57.7154 97.3892 57.4347C97.1297 57.1471 96.9346 56.8075 96.817 56.4386C96.6853 56.0267 96.6205 55.5964 96.6252 55.1641C96.6213 54.7515 96.6884 54.3413 96.8237 53.9515C96.9517 53.5818 97.1479 53.2393 97.4023 52.9419C97.6547 52.6515 97.9642 52.416 98.3116 52.2502C98.6898 52.0747 99.1028 51.9865 99.5198 51.9921C99.9608 51.9846 100.397 52.0848 100.79 52.2839C101.157 52.4712 101.476 52.7385 101.726 53.0659C101.98 53.3978 102.165 53.7779 102.269 54.1831C102.382 54.6092 102.413 55.0528 102.36 55.4905L97.9505 55.4993ZM101.037 54.6221C101.021 54.416 100.976 54.2132 100.903 54.0199C100.833 53.8349 100.73 53.6643 100.598 53.5163C100.468 53.3711 100.31 53.2531 100.134 53.1692C99.9444 53.079 99.7365 53.0336 99.5266 53.0368C99.3092 53.0345 99.0937 53.0765 98.8931 53.1603C98.7092 53.2373 98.5437 53.3523 98.4074 53.4977C98.2685 53.6446 98.1578 53.8157 98.081 54.0026C97.9981 54.2014 97.9525 54.4136 97.9463 54.6289L101.037 54.6221Z" fill="#1D1D1B"/>
<path d="M106.001 52.1432L106.986 52.1411V51.6409C106.986 51.2627 107.032 50.9557 107.124 50.7198C107.199 50.5098 107.326 50.3223 107.494 50.1749C107.646 50.0477 107.828 49.9594 108.022 49.9176C108.227 49.8747 108.436 49.8533 108.645 49.8535C109.067 49.8535 109.378 49.878 109.572 49.932V50.964C109.483 50.9398 109.392 50.9229 109.3 50.9134C109.186 50.9002 109.072 50.8944 108.957 50.8961C108.795 50.8907 108.635 50.9349 108.499 51.0226C108.37 51.107 108.308 51.2757 108.309 51.5211V52.1364L109.436 52.1339V53.1191L108.31 53.1212L108.32 58.1299L106.997 58.1324L106.986 53.1233L106 53.1267L106.001 52.1432Z" fill="#1D1D1B"/>
<path d="M113.014 58.285C112.535 58.285 112.107 58.2061 111.731 58.0488C111.37 57.9014 111.045 57.6792 110.777 57.3968C110.512 57.1091 110.309 56.7696 110.182 56.3998C110.043 55.9895 109.973 55.5586 109.977 55.1253C109.972 54.6952 110.04 54.2674 110.178 53.86C110.302 53.4901 110.503 53.1502 110.766 52.8622C111.033 52.578 111.358 52.3539 111.719 52.2047C112.096 52.0453 112.523 51.965 113.001 51.9639C113.48 51.9639 113.909 52.0406 114.284 52.1992C114.645 52.3463 114.97 52.5691 115.237 52.8525C115.503 53.1393 115.706 53.4785 115.832 53.8482C115.972 54.2554 116.041 54.6832 116.038 55.1135C116.043 55.5467 115.976 55.9777 115.839 56.3888C115.713 56.7587 115.511 57.0986 115.248 57.3875C114.982 57.6718 114.658 57.896 114.298 58.045C113.922 58.2036 113.494 58.2836 113.014 58.285ZM113.011 57.2399C113.279 57.2462 113.543 57.1818 113.777 57.0535C113.99 56.9327 114.172 56.7658 114.312 56.5651C114.453 56.3588 114.556 56.129 114.617 55.8865C114.683 55.635 114.716 55.3757 114.714 55.1156C114.714 54.8573 114.68 54.6001 114.614 54.3505C114.553 54.1072 114.448 53.8772 114.304 53.6724C114.163 53.4749 113.981 53.311 113.77 53.1924C113.533 53.0707 113.27 53.0075 113.003 53.0081C112.737 53.0087 112.474 53.073 112.238 53.1958C112.027 53.3158 111.844 53.4803 111.704 53.6778C111.562 53.8843 111.458 54.1146 111.398 54.3577C111.267 54.8617 111.269 55.3909 111.403 55.8941C111.465 56.1354 111.569 56.3639 111.71 56.5689C111.85 56.7691 112.033 56.9354 112.246 57.0556C112.48 57.1832 112.744 57.2467 113.011 57.2399Z" fill="#1D1D1B"/>
<path d="M117.135 52.1195L118.378 52.1166L118.381 53.2747H118.403C118.445 53.1022 118.522 52.9401 118.629 52.7985C118.745 52.64 118.88 52.4974 119.033 52.3742C119.193 52.2463 119.372 52.1425 119.562 52.0659C119.75 51.9892 119.95 51.9495 120.153 51.9491C120.26 51.947 120.366 51.9502 120.473 51.9588C120.531 51.9677 120.592 51.9753 120.654 51.9816L120.657 53.2574C120.562 53.2439 120.469 53.23 120.372 53.2177C120.277 53.207 120.182 53.2015 120.087 53.2013C119.869 53.2 119.653 53.2462 119.454 53.3367C119.254 53.4267 119.078 53.5614 118.939 53.7302C118.783 53.9213 118.664 54.14 118.589 54.375C118.502 54.6604 118.459 54.9576 118.463 55.256L118.468 58.1083L117.147 58.1109L117.135 52.1195Z" fill="#1D1D1B"/>
<path d="M121.223 52.1104L122.476 52.1078L122.479 52.9416H122.513C122.611 52.7985 122.719 52.663 122.838 52.5363C122.951 52.4129 123.081 52.3068 123.225 52.2213C123.379 52.1308 123.545 52.0623 123.717 52.0176C123.926 51.9636 124.142 51.9381 124.358 51.9417C124.711 51.9388 125.06 52.0213 125.375 52.1821C125.683 52.3412 125.921 52.6093 126.042 52.934C126.249 52.6411 126.513 52.3923 126.818 52.2019C127.112 52.0234 127.479 51.9341 127.921 51.9341C128.556 51.9341 129.048 52.0859 129.401 52.3942C129.754 52.7025 129.932 53.22 129.934 53.9471L129.942 58.0853L128.618 58.0882L128.611 54.5877C128.611 54.3486 128.602 54.1293 128.588 53.9323C128.577 53.7548 128.531 53.5812 128.451 53.422C128.378 53.2806 128.263 53.1653 128.121 53.0922C127.972 53.0163 127.773 52.9771 127.518 52.9779C127.068 52.9779 126.742 53.1196 126.542 53.3967C126.342 53.6738 126.241 54.0715 126.242 54.581L126.25 58.0941L124.928 58.0967L124.919 54.2478C124.919 53.8307 124.842 53.5169 124.69 53.3039C124.538 53.0909 124.263 52.9847 123.86 52.9855C123.688 52.9854 123.518 53.0217 123.361 53.092C123.204 53.1623 123.064 53.265 122.95 53.3933C122.822 53.5356 122.725 53.7014 122.662 53.8813C122.583 54.0926 122.546 54.3166 122.551 54.5417L122.558 58.1021L121.236 58.1047L121.223 52.1104Z" fill="#1D1D1B"/>
<path d="M132.362 55.4256C132.361 55.6533 132.394 55.8798 132.462 56.0974C132.522 56.3044 132.622 56.4975 132.757 56.6655C132.893 56.8295 133.063 56.9617 133.256 57.0527C133.483 57.1536 133.729 57.2024 133.977 57.1956C134.363 57.1956 134.675 57.1113 134.911 56.9426C135.146 56.7739 135.322 56.5267 135.438 56.1952L136.69 56.1919C136.568 56.8006 136.221 57.3411 135.719 57.7059C135.474 57.883 135.202 58.0173 134.912 58.1032C134.609 58.1929 134.295 58.2385 133.979 58.2386C133.506 58.2386 133.088 58.162 132.725 58.0088C132.372 57.8638 132.056 57.6429 131.799 57.3618C131.542 57.0734 131.348 56.7339 131.231 56.3656C131.097 55.954 131.031 55.5232 131.035 55.0903C131.031 54.6778 131.098 54.2676 131.236 53.8786C131.362 53.5073 131.559 53.1637 131.815 52.8664C132.066 52.5754 132.376 52.34 132.724 52.1751C133.079 52.0034 133.481 51.9175 133.93 51.9175C134.371 51.9092 134.808 52.0093 135.202 52.2089C135.568 52.3974 135.888 52.6648 136.138 52.9916C136.392 53.3241 136.576 53.7038 136.681 54.1084C136.794 54.5335 136.824 54.9763 136.771 55.4129L132.362 55.4256ZM135.448 54.5508C135.432 54.3444 135.387 54.1413 135.313 53.9477C135.243 53.7637 135.14 53.5936 135.01 53.4455C134.88 53.3002 134.722 53.1824 134.545 53.0988C134.355 53.0077 134.146 52.962 133.935 52.9651C133.717 52.963 133.502 53.005 133.301 53.0886C133.117 53.1659 132.952 53.2809 132.815 53.426C132.677 53.5724 132.567 53.7431 132.492 53.9296C132.41 54.1287 132.365 54.3409 132.359 54.5559L135.448 54.5508Z" fill="#1D1D1B"/>
<path d="M137.779 52.0752L139.02 52.0727L139.023 53.2312H139.045C139.088 53.0585 139.165 52.8962 139.273 52.7547C139.388 52.5957 139.524 52.4527 139.677 52.3295C139.837 52.2016 140.015 52.0978 140.205 52.0217C140.393 51.9455 140.594 51.9059 140.796 51.9053C140.903 51.9029 141.009 51.9064 141.115 51.9158C141.172 51.9238 141.232 51.9314 141.295 51.9386L141.299 53.2144C141.203 53.1997 141.109 53.1864 141.014 53.1743C140.919 53.1636 140.823 53.1582 140.728 53.1583C140.51 53.1574 140.295 53.2032 140.096 53.2924C139.897 53.3833 139.72 53.5181 139.58 53.6867C139.425 53.8775 139.307 54.0962 139.233 54.3311C139.144 54.6164 139.101 54.9139 139.106 55.2126L139.111 58.0653L137.789 58.0678L137.779 52.0752Z" fill="#1D1D1B"/>
<path d="M150.129 56.7093C150.129 56.8708 150.15 56.9868 150.194 57.0572C150.238 57.1277 150.318 57.1601 150.444 57.1601C150.481 57.1601 150.529 57.1601 150.583 57.1601C150.646 57.1596 150.708 57.1521 150.768 57.1378L150.77 58.0534C150.724 58.069 150.663 58.0863 150.59 58.1057C150.517 58.1251 150.44 58.1437 150.363 58.1588C150.286 58.174 150.207 58.1858 150.131 58.1951C150.056 58.2044 149.987 58.2065 149.934 58.2069C149.664 58.2069 149.44 58.1529 149.262 58.045C149.08 57.9366 148.966 57.7498 148.91 57.4777C148.638 57.7397 148.306 57.9315 147.943 58.0365C147.585 58.1496 147.212 58.2093 146.836 58.2137C146.572 58.2145 146.309 58.1779 146.055 58.1049C145.819 58.0372 145.598 57.9276 145.401 57.7814C145.209 57.6374 145.053 57.4511 144.945 57.2369C144.829 56.9961 144.772 56.7319 144.776 56.4651C144.776 56.0948 144.842 55.7941 144.978 55.5621C145.106 55.3371 145.29 55.149 145.512 55.0164C145.741 54.8801 145.992 54.7833 146.253 54.73C146.527 54.671 146.802 54.6271 147.082 54.5955C147.309 54.5498 147.537 54.516 147.767 54.4943C147.961 54.4791 148.154 54.4461 148.342 54.3956C148.49 54.3585 148.626 54.2841 148.738 54.1797C148.833 54.0827 148.881 53.9376 148.88 53.7444C148.887 53.5959 148.844 53.4495 148.758 53.3282C148.678 53.2218 148.574 53.1361 148.454 53.0781C148.328 53.0186 148.193 52.98 148.054 52.9638C147.916 52.9449 147.776 52.9352 147.636 52.9347C147.264 52.9347 146.96 53.0144 146.719 53.1696C146.478 53.3248 146.344 53.5652 146.315 53.8895L144.99 53.8929C145.014 53.5061 145.105 53.1848 145.268 52.9296C145.424 52.6791 145.636 52.4683 145.887 52.3138C146.15 52.1539 146.44 52.0431 146.742 51.9866C147.063 51.9237 147.389 51.8921 147.716 51.8921C148.009 51.8915 148.301 51.9219 148.587 51.9828C148.859 52.0394 149.12 52.1407 149.359 52.2826C149.583 52.4162 149.773 52.6006 149.912 52.8208C150.051 53.0405 150.123 53.3092 150.123 53.6255L150.129 56.7093ZM148.803 55.0421C148.602 55.1746 148.354 55.2546 148.06 55.2821C147.765 55.3097 147.472 55.3509 147.179 55.4057C147.041 55.4286 146.905 55.4616 146.773 55.5044C146.648 55.5444 146.53 55.6036 146.424 55.6798C146.322 55.755 146.24 55.855 146.187 55.9704C146.125 56.1071 146.095 56.2563 146.1 56.4065C146.096 56.5418 146.142 56.6738 146.23 56.7768C146.315 56.8764 146.42 56.9574 146.538 57.0146C146.663 57.0736 146.797 57.1142 146.934 57.1353C147.062 57.1568 147.192 57.1678 147.322 57.1682C147.482 57.167 147.641 57.1473 147.797 57.1095C147.968 57.0712 148.131 57.0043 148.28 56.9117C148.427 56.82 148.554 56.6997 148.654 56.5579C148.759 56.4016 148.812 56.2153 148.803 56.0269V55.0421Z" fill="#1D1D1B"/>
<path d="M156.829 58.0277L155.529 58.0302L155.527 57.1956H155.503C155.338 57.5027 155.087 57.7552 154.781 57.9223C154.484 58.0979 154.146 58.1928 153.801 58.1977C153.009 58.1977 152.44 58.0054 152.087 57.6153C151.734 57.2251 151.554 56.636 151.553 55.8486L151.547 52.0457L152.867 52.0431L152.876 55.7182C152.876 56.2425 152.98 56.6149 153.182 56.8304C153.383 57.0459 153.668 57.153 154.03 57.153C154.308 57.153 154.54 57.1108 154.727 57.0265C154.901 56.9486 155.056 56.8312 155.178 56.6836C155.298 56.5322 155.383 56.3558 155.426 56.1674C155.477 55.9548 155.502 55.7366 155.5 55.5179L155.493 52.0385L156.816 52.0364L156.829 58.0277Z" fill="#1D1D1B"/>
<path d="M157.609 52.0334H158.605L158.602 50.2355L159.925 50.2334L159.929 52.03H161.125L161.127 53.0144L159.932 53.0169L159.939 56.2163C159.938 56.3368 159.944 56.4572 159.957 56.5769C159.966 56.6663 159.994 56.7527 160.039 56.8299C160.083 56.9023 160.15 56.9576 160.23 56.9868C160.342 57.0258 160.46 57.0434 160.578 57.0387C160.673 57.0387 160.764 57.0362 160.857 57.0311C160.951 57.027 161.045 57.0128 161.137 56.9889V58.0096C160.991 58.026 160.849 58.0416 160.707 58.0568C160.564 58.0726 160.421 58.0805 160.278 58.0804C159.93 58.0804 159.649 58.0501 159.436 57.9843C159.247 57.9336 159.075 57.8341 158.936 57.6958C158.813 57.56 158.728 57.3937 158.69 57.2142C158.646 56.9968 158.62 56.7759 158.614 56.5541L158.606 53.0178L157.61 53.0199L157.609 52.0334Z" fill="#1D1D1B"/>
<path d="M162.076 52.0234L163.317 52.0208V53.179H163.341C163.383 53.007 163.461 52.8456 163.568 52.7045C163.682 52.5443 163.819 52.4012 163.974 52.2794C164.133 52.1507 164.31 52.0468 164.5 51.9711C164.688 51.8946 164.888 51.855 165.091 51.8542C165.246 51.8542 165.353 51.8576 165.41 51.8639C165.467 51.8703 165.53 51.8804 165.591 51.8871L165.593 53.1633C165.501 53.149 165.405 53.1351 165.31 53.1237C165.215 53.1124 165.12 53.1067 165.025 53.1064C164.807 53.1057 164.591 53.1518 164.392 53.2418C164.191 53.3322 164.014 53.4669 163.874 53.6357C163.719 53.8264 163.602 54.0452 163.529 54.2801C163.439 54.5649 163.396 54.8625 163.403 55.1612L163.408 58.0139L162.084 58.016L162.076 52.0234Z" fill="#1D1D1B"/>
<path d="M167.203 55.3523C167.202 55.5799 167.236 55.8063 167.304 56.0237C167.364 56.2305 167.464 56.4234 167.599 56.5914C167.735 56.756 167.906 56.8882 168.1 56.9781C168.326 57.0794 168.573 57.1283 168.82 57.1211C169.208 57.1211 169.518 57.0367 169.753 56.868C169.988 56.6993 170.165 56.4518 170.28 56.1203L171.532 56.1169C171.412 56.7261 171.065 57.2672 170.561 57.631C170.317 57.8087 170.045 57.9431 169.755 58.0282C169.452 58.1181 169.138 58.1638 168.822 58.1641C168.349 58.1641 167.931 58.0871 167.567 57.9334C167.215 57.7885 166.9 57.5676 166.644 57.2864C166.385 56.9986 166.19 56.6594 166.072 56.2911C165.939 55.8791 165.873 55.4485 165.877 55.0157C165.875 54.6033 165.943 54.1935 166.078 53.8036C166.206 53.4341 166.403 53.0917 166.657 52.7939C166.908 52.5018 167.218 52.2661 167.567 52.1023C167.945 51.9267 168.357 51.8384 168.774 51.8442C169.216 51.8365 169.653 51.9367 170.047 52.136C170.411 52.3259 170.731 52.5925 170.982 52.9175C171.234 53.2517 171.418 53.6314 171.525 54.0356C171.637 54.4608 171.667 54.9035 171.614 55.34L167.203 55.3523ZM170.289 54.4746C170.274 54.2682 170.228 54.0652 170.153 53.8723C170.085 53.6873 169.983 53.5166 169.852 53.3688C169.721 53.2247 169.563 53.1069 169.388 53.0217C169.196 52.9313 168.987 52.886 168.775 52.8893C168.559 52.8873 168.344 52.9293 168.145 53.0128C167.961 53.0905 167.795 53.2054 167.658 53.3502C167.519 53.4978 167.409 53.6693 167.333 53.8563C167.251 54.0553 167.207 54.2676 167.203 54.4826L170.289 54.4746Z" fill="#1D1D1B"/>
<path d="M172.619 52.0006H173.873V52.8335H173.908C174.007 52.6909 174.116 52.5555 174.234 52.4287C174.347 52.3056 174.478 52.1995 174.621 52.1136C174.776 52.0235 174.942 51.9549 175.115 51.9095C175.324 51.8562 175.539 51.8306 175.754 51.8336C176.107 51.8302 176.456 51.9129 176.771 52.0744C177.078 52.2316 177.316 52.4982 177.437 52.8217C177.645 52.5289 177.909 52.2805 178.214 52.0909C178.508 51.912 178.876 51.8235 179.317 51.8218C179.951 51.8218 180.444 51.9744 180.799 52.2827C181.153 52.591 181.33 53.109 181.33 53.836L181.338 57.9742H180.014L180.006 54.4737C180.006 54.2337 179.999 54.0149 179.982 53.8192C179.972 53.6414 179.927 53.4675 179.848 53.3076C179.775 53.1656 179.659 53.0502 179.516 52.9778C179.367 52.9019 179.167 52.8626 178.913 52.8626C178.465 52.8626 178.138 53.0048 177.938 53.2844C177.739 53.564 177.637 53.9592 177.638 54.4687L177.646 57.9814L176.323 57.9839L176.317 54.1346C176.317 53.718 176.237 53.4033 176.085 53.1903C175.933 52.9774 175.658 52.8723 175.254 52.8728C175.083 52.874 174.913 52.911 174.757 52.9813C174.601 53.0516 174.461 53.1537 174.346 53.281C174.219 53.4234 174.12 53.5889 174.055 53.7686C173.979 53.9805 173.943 54.2045 173.948 54.4294L173.953 57.9886L172.63 57.9919L172.619 52.0006Z" fill="#1D1D1B"/>
<path d="M183.759 55.316C183.759 55.5438 183.793 55.7703 183.859 55.9882C183.921 56.1951 184.022 56.3881 184.157 56.5563C184.292 56.7202 184.462 56.852 184.655 56.9422C184.88 57.0433 185.126 57.0922 185.373 57.0852C185.76 57.0852 186.072 57.0018 186.309 56.8351C186.546 56.6689 186.72 56.4184 186.835 56.0865L188.09 56.0844C188.025 56.3944 187.903 56.6897 187.73 56.9549C187.567 57.204 187.36 57.4218 187.12 57.5976C186.874 57.7748 186.601 57.909 186.31 57.9945C186.007 58.0852 185.693 58.1308 185.376 58.1299C184.904 58.1299 184.486 58.0535 184.122 57.9009C183.77 57.7548 183.455 57.5338 183.198 57.2535C182.94 56.9647 182.746 56.6252 182.627 56.2569C182.495 55.8452 182.43 55.415 182.435 54.9828C182.43 54.5702 182.497 54.1599 182.633 53.7703C182.761 53.4009 182.957 53.0585 183.211 52.7606C183.472 52.4567 183.797 52.2141 184.163 52.0499C184.529 51.8858 184.927 51.8041 185.328 51.8108C185.77 51.8022 186.207 51.9027 186.601 52.1035C186.966 52.2924 187.286 52.559 187.537 52.8846C187.79 53.2183 187.976 53.5981 188.083 54.0026C188.195 54.4289 188.225 54.8727 188.17 55.3101L183.759 55.316ZM186.846 54.4391C186.829 54.2328 186.784 54.0299 186.71 53.8365C186.642 53.6514 186.54 53.4809 186.408 53.3342C186.277 53.1891 186.12 53.0709 185.943 52.9862C185.753 52.8958 185.544 52.8505 185.333 52.8538C185.116 52.8509 184.901 52.893 184.701 52.9774C184.518 53.0545 184.352 53.1695 184.216 53.3148C184.078 53.4614 183.967 53.6321 183.891 53.8183C183.808 54.0174 183.763 54.2303 183.758 54.4459L186.846 54.4391Z" fill="#1D1D1B"/>
<path d="M189.174 51.9651H190.427L190.429 52.8449L190.453 52.8685C190.644 52.5441 190.914 52.274 191.239 52.084C191.567 51.8934 191.94 51.7945 192.32 51.7977C192.977 51.7977 193.495 51.9664 193.875 52.3038C194.254 52.6412 194.445 53.1508 194.448 53.8326L194.458 57.9489H193.133L193.125 54.181C193.107 53.709 193.007 53.3683 192.822 53.1561C192.637 52.944 192.344 52.8369 191.951 52.8381C191.743 52.8349 191.536 52.8769 191.346 52.9613C191.173 53.0397 191.019 53.1549 190.895 53.2987C190.768 53.447 190.669 53.6176 190.605 53.8018C190.535 53.9993 190.5 54.2073 190.501 54.4167L190.51 57.9531H189.186L189.174 51.9651Z" fill="#1D1D1B"/>
<path d="M195.232 51.9526L196.232 51.9505L196.228 50.1534L197.551 50.1509L197.558 51.9484L198.752 51.945L198.756 52.9294L197.559 52.9327L197.565 56.1321C197.565 56.2524 197.571 56.3726 197.584 56.4923C197.592 56.5817 197.62 56.6682 197.666 56.7453C197.71 56.8168 197.777 56.872 197.855 56.9026C197.967 56.9403 198.086 56.9576 198.204 56.9537C198.301 56.9537 198.391 56.9511 198.486 56.9461C198.579 56.9423 198.673 56.9281 198.763 56.9039L198.766 57.9254C198.618 57.9406 198.475 57.9562 198.336 57.9709C198.193 57.9876 198.049 57.9959 197.906 57.9958C197.558 57.9958 197.278 57.9646 197.061 57.8992C196.873 57.8475 196.7 57.7485 196.561 57.6116C196.438 57.4758 196.354 57.3094 196.317 57.13C196.271 56.9123 196.246 56.691 196.24 56.4687L196.232 52.9331H195.234L195.232 51.9526Z" fill="#1D1D1B"/>
<path d="M0 68.5623C0.00158184 68.5143 0.0213555 68.4688 0.0553126 68.4349C0.0892698 68.401 0.13487 68.3812 0.182867 68.3796H1.32736C1.37586 68.3796 1.42237 68.3989 1.45667 68.4331C1.49096 68.4674 1.51023 68.5138 1.51023 68.5623V70.9848H4.26293V68.5623C4.26293 68.5382 4.26767 68.5145 4.27689 68.4923C4.28611 68.4701 4.29961 68.4499 4.31664 68.433C4.33366 68.416 4.35387 68.4026 4.37611 68.3934C4.39834 68.3843 4.42217 68.3796 4.44622 68.3796H5.59283C5.64082 68.3812 5.68642 68.401 5.72038 68.4349C5.75434 68.4688 5.77411 68.5143 5.77569 68.5623V74.926C5.77411 74.9739 5.75434 75.0195 5.72038 75.0534C5.68642 75.0873 5.64082 75.107 5.59283 75.1086H4.44748C4.42344 75.1087 4.39961 75.104 4.37738 75.0948C4.35514 75.0857 4.33493 75.0722 4.31791 75.0553C4.30088 75.0383 4.28737 75.0182 4.27816 74.996C4.26894 74.9738 4.2642 74.95 4.2642 74.926V72.398H1.51149V74.926C1.51149 74.9744 1.49223 75.0209 1.45794 75.0551C1.42364 75.0894 1.37713 75.1086 1.32863 75.1086H0.182867C0.13487 75.107 0.0892698 75.0873 0.0553126 75.0534C0.0213555 75.0195 0.00158184 74.9739 0 74.926V68.5623Z" fill="#1D1D1B"/>
<path d="M12.3191 68.2835C13.0046 68.2815 13.6752 68.4827 14.2462 68.8614C14.8172 69.2401 15.2629 69.7794 15.5269 70.411C15.791 71.0427 15.8616 71.7384 15.7297 72.4101C15.5978 73.0818 15.2695 73.6994 14.7861 74.1848C14.3027 74.6701 13.6861 75.0014 13.0142 75.1368C12.3423 75.2722 11.6453 75.2055 11.0113 74.9453C10.3773 74.6851 9.83488 74.2429 9.45253 73.6748C9.07018 73.1067 8.86512 72.4381 8.86328 71.7536C8.86328 69.8313 10.3938 68.2835 12.3191 68.2835ZM12.3191 73.6666C12.8278 73.6657 13.3155 73.4641 13.6761 73.1058C14.0367 72.7475 14.241 72.2615 14.2445 71.7536C14.2445 70.6963 13.3779 69.8216 12.3191 69.8216C11.2701 69.8216 10.4035 70.6963 10.4035 71.7536C10.4065 72.26 10.6093 72.7449 10.9679 73.103C11.3265 73.4611 11.812 73.6637 12.3191 73.6666Z" fill="#1D1D1B"/>
<path d="M18.8652 68.4564C18.8672 68.4095 18.8874 68.3652 18.9216 68.3329C18.9557 68.3006 19.0011 68.2829 19.0481 68.2835H19.2888L23.1294 71.975H23.1391V68.5622C23.1391 68.5382 23.1438 68.5145 23.1529 68.4923C23.1621 68.4701 23.1756 68.45 23.1926 68.433C23.2096 68.416 23.2298 68.4026 23.252 68.3934C23.2742 68.3843 23.298 68.3796 23.322 68.3796H24.4771C24.5251 68.3812 24.5707 68.4009 24.6046 68.4349C24.6386 68.4688 24.6583 68.5143 24.6599 68.5622V75.0318C24.658 75.0788 24.6378 75.1231 24.6036 75.1553C24.5695 75.1876 24.5241 75.2053 24.4771 75.2048H24.3229C24.2774 75.1992 24.2339 75.1827 24.1962 75.1567L20.3953 71.3403H20.3856V74.9251C20.3857 74.9491 20.381 74.9729 20.3718 74.9951C20.3626 75.0173 20.3492 75.0374 20.3322 75.0544C20.3152 75.0714 20.295 75.0848 20.2728 75.094C20.2506 75.1031 20.2268 75.1078 20.2027 75.1078H19.0574C19.0094 75.1062 18.9638 75.0864 18.9298 75.0525C18.8959 75.0186 18.8761 74.9731 18.8745 74.9251L18.8652 68.4564Z" fill="#1D1D1B"/>
<path d="M31.2039 68.2835C31.8894 68.2815 32.56 68.4827 33.131 68.8614C33.7019 69.2401 34.1477 69.7794 34.4117 70.411C34.6758 71.0427 34.7463 71.7384 34.6145 72.4101C34.4826 73.0818 34.1542 73.6994 33.6709 74.1848C33.1875 74.6701 32.5709 75.0014 31.899 75.1368C31.2271 75.2722 30.5301 75.2055 29.8961 74.9453C29.2621 74.6851 28.7196 74.2429 28.3373 73.6748C27.9549 73.1067 27.7499 72.4381 27.748 71.7536C27.748 69.8313 29.279 68.2835 31.2039 68.2835ZM31.2039 73.6666C31.7126 73.6657 32.2003 73.4641 32.5608 73.1058C32.9214 72.7475 33.1257 72.2615 33.1293 71.7536C33.1293 70.6963 32.2627 69.8216 31.2039 69.8216C30.1549 69.8216 29.2883 70.6963 29.2883 71.7536C29.2913 72.26 29.494 72.7449 29.8527 73.103C30.2113 73.4611 30.6968 73.6637 31.2039 73.6666Z" fill="#1D1D1B"/>
<path d="M37.7578 68.5623C37.7578 68.5138 37.7771 68.4674 37.8114 68.4331C37.8457 68.3989 37.8922 68.3796 37.9407 68.3796H40.8192C41.9743 68.3796 42.9178 69.3121 42.9178 70.4559C42.9178 71.3416 42.3303 72.0518 41.4928 72.3879L42.8118 74.8298C42.8789 74.9564 42.8118 75.1086 42.6479 75.1086H41.3678C41.3368 75.1088 41.3063 75.101 41.2793 75.0858C41.2522 75.0707 41.2296 75.0487 41.2137 75.0222L39.9336 72.4748H39.2693V74.926C39.2677 74.9739 39.2479 75.0195 39.214 75.0534C39.18 75.0873 39.1344 75.107 39.0864 75.1086H37.9428C37.8943 75.1086 37.8478 75.0894 37.8135 75.0551C37.7792 75.0209 37.7599 74.9744 37.7599 74.926L37.7578 68.5623ZM40.6938 71.2538C41.0887 71.2538 41.4257 70.8886 41.4257 70.4846C41.424 70.2913 41.3464 70.1064 41.2095 69.9697C41.0726 69.8331 40.8874 69.7557 40.6938 69.7541H39.2693V71.2522L40.6938 71.2538Z" fill="#1D1D1B"/>
<path d="M46.1309 68.5623C46.1324 68.5143 46.1522 68.4688 46.1862 68.4349C46.2201 68.401 46.2657 68.3812 46.3137 68.3796H47.4688C47.5168 68.3812 47.5624 68.401 47.5963 68.4349C47.6303 68.4688 47.6501 68.5143 47.6516 68.5623V74.926C47.6501 74.9739 47.6303 75.0195 47.5963 75.0534C47.5624 75.0873 47.5168 75.107 47.4688 75.1086H46.3137C46.2657 75.107 46.2201 75.0873 46.1862 75.0534C46.1522 75.0195 46.1324 74.9739 46.1309 74.926V68.5623Z" fill="#1D1D1B"/>
<path d="M50.847 74.1954L51.2993 73.3974C51.3766 73.2709 51.559 73.2916 51.6266 73.3397C51.665 73.3591 52.358 73.8685 52.9936 73.8685C53.3784 73.8685 53.6575 73.6281 53.6575 73.2916C53.6575 72.888 53.3197 72.5801 52.6663 72.3216C51.8382 71.9947 50.7988 71.3515 50.7988 70.1972C50.7988 69.2453 51.54 68.2842 53.0224 68.2842C54.0233 68.2842 54.7936 68.7936 55.0824 69.0049C55.1977 69.0724 55.1787 69.2453 55.1403 69.3128L54.6491 70.053C54.582 70.1588 54.4084 70.2453 54.3218 70.1795C54.2374 70.1314 53.5325 69.603 52.9455 69.603C52.5988 69.603 52.339 69.8337 52.339 70.0931C52.339 70.449 52.6279 70.7181 53.3881 71.0255C54.139 71.3233 55.3308 71.9112 55.3308 73.2186C55.3308 74.2085 54.4743 75.2084 53.0591 75.2084C51.8078 75.2084 51.1164 74.6893 50.8934 74.4683C50.7988 74.3683 50.7697 74.3308 50.847 74.1954Z" fill="#1D1D1B"/>
<path d="M66.4419 68.9181V68.7444H68.6979V68.9181H68.4581C68.3424 68.9141 68.2277 68.9412 68.1261 68.9966C68.0245 69.0519 67.9396 69.1335 67.8803 69.2328C67.8144 69.3298 67.7815 69.5547 67.7815 69.9076V72.4891C67.7815 73.1273 67.718 73.6225 67.591 73.9745C67.4641 74.3265 67.215 74.628 66.844 74.8791C66.4729 75.1322 65.9676 75.2587 65.3282 75.2587C64.6328 75.2587 64.1049 75.1382 63.7445 74.8972C63.391 74.665 63.1222 74.3247 62.9784 73.9272C62.8779 73.6489 62.8278 73.1263 62.8281 72.3596V69.8713C62.8281 69.4805 62.774 69.2239 62.6659 69.1016C62.5578 68.9793 62.3831 68.9183 62.1418 68.9186H61.9023V68.7448H64.6563V68.9186H64.4118C64.1485 68.9186 63.9606 69.0015 63.848 69.1674C63.7694 69.2799 63.7302 69.5145 63.7302 69.8713V72.6439C63.7331 72.9282 63.7559 73.2121 63.7986 73.4933C63.8439 73.8127 63.9261 74.0614 64.0452 74.2393C64.1761 74.4281 64.3534 74.58 64.56 74.6805C64.7853 74.7966 65.0602 74.8545 65.3848 74.8542C65.7748 74.8608 66.1599 74.7671 66.5031 74.5822C66.832 74.4009 67.0572 74.1685 67.1789 73.8851C67.3005 73.6016 67.3607 73.1223 67.3596 72.4469V69.87C67.3596 69.4727 67.3158 69.2241 67.2283 69.124C67.1058 68.9862 66.9241 68.9173 66.683 68.9173L66.4419 68.9181Z" fill="#1D1D1B"/>
<path d="M70.5987 68.7444H72.3281L76.224 73.5177V69.8485C76.224 69.4577 76.1802 69.2136 76.0927 69.1164C75.9767 68.9853 75.7937 68.9197 75.5437 68.9194H75.3228V68.7456H77.5408V68.9194H77.3153C77.0459 68.9194 76.8547 69.0008 76.7418 69.1636C76.6731 69.264 76.6387 69.4923 76.6387 69.8485V75.2131H76.4698L72.2685 70.0881V74.0069C72.2685 74.3983 72.3108 74.6424 72.3952 74.7391C72.5143 74.8707 72.6973 74.9363 72.9442 74.9361H73.1698V75.1098H70.9517V74.9361H71.1726C71.4449 74.9361 71.6374 74.8548 71.7503 74.6923C71.8193 74.5919 71.8538 74.3635 71.8538 74.0069V69.5799C71.6688 69.3639 71.5281 69.2217 71.4315 69.1531C71.3013 69.0677 71.1589 69.0027 71.0092 68.9603C70.8739 68.9273 70.7348 68.9131 70.5957 68.9181L70.5987 68.7444Z" fill="#1D1D1B"/>
<path d="M82.5721 74.9348V75.1085H79.8418V74.9348H80.0673C80.3306 74.9348 80.5216 74.8582 80.6404 74.7049C80.7159 74.6051 80.7536 74.3642 80.7536 73.9821V69.8709C80.7536 69.5487 80.7332 69.336 80.6924 69.2328C80.6528 69.1457 80.5849 69.0745 80.4998 69.0307C80.3675 68.9572 80.2187 68.9184 80.0673 68.9181H79.8418V68.7444H82.5721V68.9181H82.3419C82.0818 68.9181 81.8922 68.9948 81.7731 69.148C81.6948 69.2484 81.6557 69.4893 81.6557 69.8709V73.9821C81.6557 74.3046 81.6761 74.5174 81.7169 74.6206C81.7576 74.7084 81.8272 74.7796 81.9141 74.8222C82.0446 74.8961 82.192 74.9349 82.3419 74.9348H82.5721Z" fill="#1D1D1B"/>
<path d="M90.3006 68.7444L90.3712 70.2369H90.1925C90.1579 69.9741 90.1109 69.7864 90.0515 69.6739C89.9656 69.5042 89.8305 69.3643 89.6638 69.2724C89.5024 69.1864 89.2903 69.1434 89.0273 69.1434H88.1295V74.0057C88.1295 74.3971 88.1717 74.6411 88.2562 74.7378C88.3753 74.8694 88.5583 74.9351 88.8052 74.9348H89.0265V75.1085H86.3236V74.9348H86.5517C86.8211 74.9348 87.0123 74.8535 87.1252 74.691C87.1939 74.5906 87.2282 74.3622 87.2282 74.0057V69.1434H86.4625C86.1647 69.1434 85.9535 69.1653 85.8291 69.2092C85.6568 69.2761 85.5104 69.396 85.411 69.5516C85.295 69.7203 85.226 69.9488 85.204 70.2369H85.0254L85.1006 68.7444H90.3006Z" fill="#1D1D1B"/>
<path d="M94.5487 69.0918V71.6075H95.9491C96.3123 71.6075 96.5551 71.5527 96.6776 71.443C96.8403 71.2991 96.9311 71.046 96.95 70.6839H97.124V72.8968H96.95C96.9061 72.5875 96.8623 72.3887 96.8187 72.3005C96.7571 72.1863 96.6595 72.0956 96.5412 72.0423C96.4128 71.9799 96.2157 71.9487 95.9499 71.9487H94.5495V74.0465C94.5495 74.3276 94.562 74.499 94.5871 74.5606C94.613 74.6226 94.6594 74.6739 94.7184 74.7061C94.7815 74.7421 94.9006 74.7599 95.0757 74.7597H96.1569C96.5173 74.7597 96.7788 74.7348 96.9416 74.685C97.1196 74.6254 97.2807 74.5242 97.4116 74.3898C97.6059 74.1958 97.8048 73.9032 98.0083 73.5121H98.1963L97.6473 75.1076H92.7344V74.9338H92.9599C93.1093 74.9342 93.2564 74.897 93.3877 74.8259C93.435 74.8038 93.4775 74.7725 93.5126 74.7338C93.5477 74.6951 93.5747 74.6499 93.5921 74.6007C93.6281 74.5008 93.6462 74.2959 93.6462 73.9858V69.8526C93.6462 69.4494 93.6055 69.2007 93.5241 69.1066C93.4115 68.9817 93.2234 68.9192 92.9599 68.9189H92.7344V68.7451H97.6456L97.7161 70.1369H97.5332C97.4673 69.8026 97.3944 69.5727 97.3145 69.4473C97.2289 69.3174 97.1049 69.2173 96.9597 69.161C96.8347 69.1137 96.6138 69.0902 96.2971 69.0905L94.5487 69.0918Z" fill="#1D1D1B"/>
<path d="M100.506 75.1085V74.9348H100.745C101.015 74.9348 101.206 74.8487 101.319 74.6767C101.388 74.5735 101.422 74.3419 101.422 73.9821V69.8709C101.422 69.4736 101.378 69.2249 101.291 69.1248C101.169 68.987 100.987 68.9181 100.745 68.9181H100.506V68.7444H103.1C104.052 68.7444 104.777 68.8523 105.273 69.0683C105.77 69.2842 106.17 69.644 106.472 70.1475C106.774 70.6517 106.925 71.2337 106.926 71.8936C106.926 72.7792 106.656 73.5193 106.117 74.1136C105.513 74.7769 104.591 75.1085 103.354 75.1085H100.506ZM102.324 74.6488C102.722 74.7363 103.056 74.78 103.325 74.78C104.052 74.78 104.655 74.525 105.135 74.015C105.614 73.5049 105.854 72.8135 105.853 71.9408C105.853 71.0616 105.614 70.3685 105.135 69.8616C104.656 69.3547 104.041 69.1016 103.288 69.1024C102.962 69.1085 102.639 69.1542 102.324 69.2387V74.6488Z" fill="#1D1D1B"/>
<path d="M118.139 68.9181V68.7444H120.395V68.9181H120.155C120.04 68.9142 119.925 68.9413 119.823 68.9966C119.722 69.052 119.637 69.1335 119.577 69.2328C119.512 69.3298 119.479 69.5547 119.479 69.9076V72.4891C119.479 73.1273 119.415 73.6225 119.289 73.9745C119.162 74.3265 118.913 74.6283 118.541 74.88C118.17 75.133 117.665 75.2595 117.025 75.2595C116.33 75.2595 115.802 75.1391 115.442 74.8981C115.088 74.6658 114.819 74.3255 114.676 73.9281C114.575 73.6497 114.525 73.1272 114.525 72.3604V69.8721C114.525 69.4813 114.471 69.2248 114.363 69.1024C114.255 68.9801 114.08 68.9191 113.839 68.9194H113.6V68.7456H116.354V68.9194H116.109C115.846 68.9194 115.658 69.0024 115.545 69.1682C115.467 69.2807 115.427 69.5153 115.427 69.8721V72.6439C115.43 72.9282 115.453 73.2121 115.496 73.4933C115.541 73.8127 115.623 74.0614 115.742 74.2393C115.873 74.4281 116.051 74.58 116.257 74.6805C116.483 74.7966 116.757 74.8545 117.082 74.8542C117.472 74.8608 117.857 74.7671 118.2 74.5822C118.529 74.4009 118.754 74.1685 118.876 73.8851C118.998 73.6016 119.058 73.1223 119.057 72.4469V69.87C119.057 69.4727 119.013 69.2241 118.926 69.124C118.803 68.9862 118.621 68.9173 118.38 68.9173L118.139 68.9181Z" fill="#1D1D1B"/>
<path d="M122.296 68.7444H124.028L127.924 73.5177V69.8485C127.924 69.4577 127.88 69.2136 127.792 69.1164C127.676 68.9853 127.493 68.9197 127.243 68.9194H127.022V68.7456H129.24V68.9194H129.015C128.745 68.9194 128.554 69.0008 128.441 69.1636C128.372 69.264 128.338 69.4923 128.338 69.8485V75.2131H128.169L123.967 70.0881V74.0069C123.967 74.3983 124.01 74.6424 124.094 74.7391C124.213 74.8707 124.396 74.9363 124.643 74.9361H124.869V75.1098H122.65V74.9361H122.872C123.144 74.9361 123.337 74.8548 123.45 74.6923C123.519 74.5919 123.553 74.3635 123.553 74.0069V69.5799C123.368 69.3639 123.228 69.2217 123.131 69.1531C123.001 69.0678 122.859 69.0028 122.709 68.9603C122.573 68.9273 122.434 68.9131 122.295 68.9181L122.296 68.7444Z" fill="#1D1D1B"/>
<path d="M134.27 74.9348V75.1085H131.539V74.9348H131.765C132.028 74.9348 132.219 74.8582 132.338 74.7049C132.413 74.6051 132.451 74.3642 132.451 73.9821V69.8709C132.451 69.5487 132.43 69.336 132.39 69.2328C132.35 69.1456 132.282 69.0743 132.197 69.0307C132.065 68.9571 131.916 68.9184 131.765 68.9181H131.539V68.7444H134.27V68.9181H134.039C133.779 68.9181 133.59 68.9948 133.471 69.148C133.392 69.2484 133.353 69.4893 133.353 69.8709V73.9821C133.353 74.3046 133.374 74.5174 133.414 74.6206C133.455 74.7084 133.524 74.7796 133.611 74.8222C133.742 74.8961 133.889 74.9349 134.039 74.9348H134.27Z" fill="#1D1D1B"/>
<path d="M143.262 68.7444V68.9181C143.037 68.9586 142.866 69.0306 142.75 69.1341C142.584 69.2876 142.437 69.5222 142.308 69.838L140.085 75.254H139.911L137.524 69.7675C137.402 69.4864 137.316 69.3143 137.265 69.2513C137.187 69.1546 137.089 69.0768 136.976 69.024C136.829 68.9612 136.672 68.9253 136.512 68.9181V68.7444H139.115V68.9181C138.821 68.9463 138.629 68.9963 138.542 69.0683C138.5 69.1011 138.466 69.1432 138.443 69.1913C138.42 69.2394 138.409 69.2921 138.41 69.3454C138.41 69.502 138.482 69.746 138.626 70.0775L140.248 73.8087L141.752 70.1243C141.899 69.7614 141.972 69.5094 141.972 69.3686C141.972 69.2779 141.927 69.1914 141.836 69.1084C141.746 69.0253 141.592 68.9666 141.376 68.9325C141.36 68.9291 141.333 68.9245 141.296 68.9181V68.7444H143.262Z" fill="#1D1D1B"/>
<path d="M147.316 69.0918V71.6075H148.718C149.081 71.6075 149.324 71.5527 149.446 71.443C149.609 71.2991 149.7 71.046 149.718 70.6839H149.892V72.8968H149.718C149.675 72.5875 149.631 72.3887 149.587 72.3005C149.525 72.1863 149.428 72.0956 149.31 72.0423C149.181 71.9799 148.984 71.9487 148.718 71.9487H147.318V74.0465C147.318 74.3276 147.33 74.499 147.356 74.5606C147.381 74.6226 147.428 74.6739 147.487 74.7061C147.55 74.7421 147.669 74.7599 147.844 74.7597H148.925C149.286 74.7597 149.547 74.7348 149.71 74.685C149.888 74.6255 150.049 74.5243 150.18 74.3898C150.374 74.1958 150.573 73.9032 150.777 73.5121H150.965L150.416 75.1076H145.502V74.9338H145.727C145.877 74.9342 146.024 74.897 146.155 74.8259C146.202 74.8038 146.245 74.7725 146.28 74.7338C146.315 74.6951 146.342 74.6499 146.36 74.6007C146.395 74.5008 146.413 74.2959 146.413 73.9858V69.8526C146.413 69.4494 146.373 69.2007 146.291 69.1066C146.179 68.9817 145.991 68.9192 145.727 68.9189H145.502V68.7451H150.413L150.483 70.1369H150.3C150.234 69.8026 150.161 69.5727 150.082 69.4473C149.996 69.3174 149.872 69.2173 149.727 69.161C149.601 69.1137 149.38 69.0902 149.064 69.0905L147.316 69.0918Z" fill="#1D1D1B"/>
<path d="M159.613 75.1085H157.912L155.755 72.1331C155.595 72.1393 155.465 72.1424 155.365 72.1424C155.323 72.1424 155.28 72.1424 155.233 72.1399C155.187 72.1373 155.138 72.1361 155.087 72.1331V73.9821C155.087 74.3827 155.131 74.6315 155.219 74.7285C155.338 74.866 155.517 74.9348 155.755 74.9348H156.004V75.1085H153.273V74.9348H153.513C153.783 74.9348 153.976 74.8472 154.091 74.672C154.157 74.575 154.19 74.345 154.19 73.9821V69.8709C154.19 69.4702 154.146 69.2215 154.058 69.1248C153.936 68.987 153.754 68.9181 153.513 68.9181H153.273V68.7444H155.596C156.272 68.7444 156.771 68.7937 157.093 68.8924C157.413 68.9903 157.698 69.1795 157.911 69.4369C158.135 69.7003 158.256 70.0366 158.249 70.3824C158.254 70.7581 158.118 71.1219 157.866 71.401C157.61 71.6889 157.215 71.8922 156.679 72.0108L157.995 73.837C158.296 74.2556 158.554 74.534 158.77 74.672C158.987 74.8101 159.268 74.8977 159.615 74.9348L159.613 75.1085ZM155.087 71.8375C155.147 71.8375 155.199 71.8375 155.243 71.8375C155.287 71.8375 155.323 71.84 155.351 71.84C155.958 71.84 156.417 71.7086 156.726 71.4457C156.874 71.3245 156.993 71.1711 157.074 70.9971C157.154 70.8231 157.194 70.6331 157.19 70.4415C157.19 70.0442 157.065 69.7209 156.816 69.4715C156.567 69.2221 156.237 69.0987 155.825 69.1012C155.577 69.1087 155.33 69.1386 155.087 69.1906L155.087 71.8375Z" fill="#1D1D1B"/>
<path d="M165.867 68.599V70.8005H165.693C165.637 70.3788 165.536 70.0423 165.39 69.7913C165.242 69.5386 165.027 69.3322 164.767 69.1953C164.512 69.0519 164.224 68.976 163.931 68.9748C163.605 68.9748 163.336 69.074 163.123 69.2725C162.91 69.471 162.803 69.6971 162.803 69.9507C162.803 70.1462 162.875 70.3349 163.005 70.4812C163.199 70.7157 163.661 71.0285 164.391 71.4196C164.987 71.739 165.394 71.9839 165.611 72.1543C165.821 72.3158 165.993 72.5218 166.114 72.7574C166.23 72.9824 166.29 73.2318 166.29 73.4849C166.29 73.9666 166.103 74.3818 165.729 74.7308C165.354 75.0797 164.872 75.2542 164.283 75.2542C164.109 75.2551 163.934 75.2409 163.762 75.212C163.557 75.1667 163.356 75.1096 163.158 75.0408C162.853 74.9421 162.659 74.8927 162.578 74.8927C162.543 74.891 162.509 74.8963 162.477 74.9085C162.445 74.9206 162.416 74.9392 162.392 74.9632C162.347 75.01 162.313 75.1074 162.291 75.2542H162.117V73.0716H162.291C162.373 73.5288 162.482 73.8707 162.62 74.0973C162.758 74.3239 162.969 74.5125 163.253 74.6629C163.541 74.814 163.861 74.8914 164.186 74.8881C164.578 74.8881 164.887 74.7849 165.115 74.5785C165.342 74.3722 165.456 74.1281 165.456 73.8464C165.453 73.68 165.409 73.517 165.327 73.3723C165.226 73.1965 165.089 73.0443 164.924 72.9261C164.802 72.8325 164.469 72.6331 163.924 72.3281C163.378 72.023 162.991 71.7797 162.76 71.598C162.546 71.4364 162.366 71.2326 162.233 70.9992C162.113 70.7771 162.052 70.5284 162.055 70.2763C162.055 69.8197 162.23 69.426 162.581 69.0954C162.932 68.7647 163.378 68.5996 163.92 68.5998C164.258 68.5998 164.617 68.6828 164.997 68.8487C165.172 68.9271 165.296 68.9663 165.368 68.9663C165.442 68.9692 165.513 68.9429 165.568 68.8934C165.619 68.845 165.661 68.7466 165.692 68.5981L165.867 68.599Z" fill="#1D1D1B"/>
<path d="M171.701 74.9348V75.1085H168.971V74.9348H169.196C169.459 74.9348 169.651 74.8582 169.77 74.7049C169.845 74.6051 169.882 74.3642 169.883 73.9821V69.8709C169.883 69.5487 169.862 69.336 169.821 69.2328C169.782 69.1456 169.714 69.0743 169.629 69.0307C169.496 68.9572 169.348 68.9184 169.196 68.9181H168.971V68.7444H171.701V68.9181H171.471C171.211 68.9181 171.021 68.9948 170.902 69.148C170.824 69.2484 170.785 69.4893 170.785 69.8709V73.9821C170.785 74.3047 170.805 74.5173 170.846 74.6206C170.886 74.7084 170.956 74.7796 171.043 74.8222C171.173 74.8961 171.321 74.9349 171.471 74.9348H171.701Z" fill="#1D1D1B"/>
<path d="M179.431 68.7444L179.501 70.2369H179.323C179.288 69.9741 179.241 69.7864 179.181 69.6739C179.096 69.5041 178.961 69.3642 178.794 69.2724C178.633 69.1864 178.42 69.1434 178.157 69.1434H177.259V74.0057C177.259 74.3971 177.302 74.6411 177.386 74.7378C177.505 74.8694 177.688 74.9351 177.935 74.9348H178.156V75.1085H175.453V74.9348H175.679C175.948 74.9348 176.139 74.8535 176.252 74.691C176.321 74.5906 176.355 74.3622 176.356 74.0057V69.1434H175.589C175.292 69.1434 175.081 69.1653 174.956 69.2092C174.784 69.2762 174.637 69.3961 174.538 69.5516C174.422 69.7203 174.353 69.9488 174.331 70.2369H174.152L174.228 68.7444H179.431Z" fill="#1D1D1B"/>
<path d="M184.637 74.9348V75.1085H181.906V74.9348H182.132C182.395 74.9348 182.586 74.8582 182.705 74.7049C182.78 74.6051 182.817 74.3642 182.818 73.9821V69.8709C182.818 69.5487 182.798 69.336 182.757 69.2328C182.717 69.1456 182.65 69.0743 182.564 69.0307C182.432 68.9572 182.283 68.9184 182.132 68.9181H181.906V68.7444H184.637V68.9181H184.405C184.145 68.9181 183.955 68.9948 183.836 69.148C183.758 69.2484 183.719 69.4893 183.718 69.8709V73.9821C183.718 74.3046 183.739 74.5174 183.78 74.6206C183.82 74.7084 183.89 74.7796 183.977 74.8222C184.107 74.8961 184.255 74.9349 184.405 74.9348H184.637Z" fill="#1D1D1B"/>
<path d="M188.808 69.0918V71.6075H190.208C190.572 71.6075 190.815 71.5527 190.937 71.443C191.1 71.2991 191.19 71.046 191.209 70.6839H191.383V72.8968H191.209C191.166 72.5875 191.122 72.3887 191.078 72.3005C191.016 72.1863 190.919 72.0956 190.801 72.0423C190.672 71.9799 190.475 71.9487 190.209 71.9487H188.809V74.0465C188.809 74.3276 188.821 74.499 188.846 74.5606C188.872 74.6226 188.919 74.6739 188.978 74.7061C189.041 74.7421 189.16 74.7599 189.335 74.7597H190.416C190.777 74.7597 191.038 74.7348 191.201 74.685C191.379 74.6255 191.54 74.5243 191.671 74.3898C191.865 74.1958 192.064 73.9032 192.268 73.5121H192.456L191.907 75.1076H186.994V74.9338H187.22C187.369 74.9342 187.516 74.897 187.647 74.8259C187.694 74.8038 187.737 74.7725 187.772 74.7338C187.807 74.6951 187.834 74.6499 187.852 74.6007C187.888 74.5008 187.906 74.2959 187.906 73.9858V69.8526C187.906 69.4494 187.865 69.2007 187.783 69.1066C187.671 68.9817 187.483 68.9192 187.22 68.9189H186.994V68.7451H191.905L191.975 70.1369H191.792C191.726 69.8026 191.653 69.5727 191.574 69.4473C191.488 69.3174 191.364 69.2173 191.219 69.161C191.094 69.1137 190.873 69.0902 190.556 69.0905L188.808 69.0918Z" fill="#1D1D1B"/>
<path d="M199.014 68.599V70.8005H198.84C198.783 70.3788 198.682 70.0423 198.537 69.7913C198.389 69.5387 198.173 69.3323 197.914 69.1953C197.658 69.0519 197.37 68.9759 197.077 68.9748C196.752 68.9748 196.482 69.074 196.269 69.2725C196.056 69.471 195.949 69.6971 195.95 69.9507C195.95 70.1462 196.022 70.3349 196.152 70.4812C196.346 70.7157 196.808 71.0285 197.538 71.4196C198.133 71.739 198.54 71.9839 198.758 72.1543C198.968 72.3158 199.139 72.5218 199.26 72.7574C199.376 72.9824 199.437 73.2318 199.437 73.4849C199.437 73.9666 199.25 74.3818 198.875 74.7308C198.501 75.0797 198.019 75.2542 197.43 75.2542C197.255 75.2551 197.08 75.2409 196.908 75.212C196.704 75.1666 196.502 75.1095 196.304 75.0408C195.999 74.9421 195.805 74.8927 195.724 74.8927C195.69 74.891 195.656 74.8963 195.624 74.9084C195.592 74.9206 195.563 74.9392 195.538 74.9632C195.493 75.01 195.459 75.1074 195.437 75.2542H195.263V73.0716H195.437C195.519 73.5288 195.629 73.8707 195.766 74.0973C195.903 74.3239 196.115 74.5125 196.4 74.6629C196.687 74.8139 197.008 74.8913 197.332 74.8881C197.724 74.8881 198.034 74.7849 198.262 74.5785C198.489 74.3722 198.603 74.1281 198.602 73.8464C198.6 73.68 198.555 73.517 198.473 73.3723C198.372 73.1967 198.235 73.0446 198.071 72.9261C197.949 72.8325 197.615 72.6331 197.07 72.3281C196.525 72.023 196.137 71.7797 195.907 71.598C195.693 71.4364 195.513 71.2326 195.381 70.9992C195.261 70.7772 195.2 70.5284 195.202 70.2763C195.202 69.8197 195.378 69.426 195.729 69.0954C196.08 68.7647 196.526 68.5996 197.068 68.5998C197.406 68.5998 197.765 68.6828 198.145 68.8487C198.32 68.9271 198.443 68.9663 198.515 68.9663C198.589 68.9692 198.661 68.943 198.715 68.8934C198.767 68.845 198.808 68.7466 198.84 68.5981L199.014 68.599Z" fill="#1D1D1B"/>
<path d="M200 62.8896H0.955078V65.0401H200V62.8896Z" fill="#C90C0F"/>
</g>
<defs>
<clipPath id="clip0_40000004_27857">
<rect width="200" height="75.2587" fill="white"/>
</clipPath>
</defs>
</svg>
